# xmcd
#
# Track frame offsets: 
#        150
#        13157
#        25142
#        36862
#        54655
#        66787
#        84277
#        104750
#        121862
#        139012
#        152100
#        165145
#        184445
#        196362
#        209590
#        224155
#
# Disc length: 3292 seconds
#
# Revision: 0
# Processed by: cddbd v1.4PL0 Copyright (c) Steve Scherf et al.
# Submitted via: ExactAudioCopy v0.90b4
#
DISCID=e90cda10
DTITLE=Fleetwood Mac - Black Magic Woman
DYEAR=1969
DGENRE=Blues
TTITLE0=Black Magic Woman
TTITLE1=Coming Home
TTITLE2=Lazy Poker Blues
TTITLE3=Something Inside Of Me
TTITLE4=Evenin' Boogie
TTITLE5=If You Be My Baby
TTITLE6=Without You
TTITLE7=Rockin' Boogie
TTITLE8=Need Your Love So Bad
TTITLE9=Rollin' Man
TTITLE10=Dust My Broom
TTITLE11=I've Lost My Baby
TTITLE12=The Big Boat
TTITLE13=Shake Your Moneymaker
TTITLE14=The Sun Is Shining
TTITLE15=Last Night
EXTD=
EXTT0=
EXTT1=
EXTT2=
EXTT3=
EXTT4=
EXTT5=
EXTT6=
EXTT7=
EXTT8=
EXTT9=
EXTT10=
EXTT11=
EXTT12=
EXTT13=
EXTT14=
EXTT15=
PLAYORDER=
